<?xml version="1.0" encoding="UTF-8"?>
<svg xmlns="http://www.w3.org/2000/svg" xmlns:xlink="http://www.w3.org/1999/xlink" width="40px" height="40px" viewBox="0 0 40 40" version="1.1">
<g id="surface1">
<path style=" stroke:none;fill-rule:nonzero;fill:rgb(0%,0.392157%,0%);fill-opacity:1;" d="M 6.25 5 C 6.296875 5 6.347656 5 6.394531 5 C 6.53125 5 6.664062 5 6.796875 5 C 6.945312 5 7.089844 5 7.234375 5 C 7.507812 5 7.78125 5 8.054688 5 C 8.3125 5 8.570312 5 8.828125 5 L 8.878906 5 C 8.949219 5 9.019531 5 9.089844 5 C 9.746094 5 10.402344 5 11.058594 5 C 11.691406 5 12.324219 5 12.957031 5 L 14.957031 5 C 15.605469 5 16.253906 5 16.902344 5 C 16.933594 5 16.933594 5 16.964844 5 C 17.304688 5 17.648438 5 17.988281 5 C 19.34375 5 20.691406 5 22.039062 5 L 23.0625 5 C 23.085938 5 23.105469 5 23.128906 5 C 24.261719 5 25.394531 5 26.527344 5 C 26.566406 5 26.609375 5 26.648438 5 L 28.785156 5 C 29.5 5 30.214844 5 30.925781 5.003906 L 31.191406 5.003906 C 31.445312 5.003906 31.703125 5.003906 31.960938 5.003906 C 32.246094 5.003906 32.53125 5.003906 32.816406 5.003906 L 33.246094 5.003906 C 33.375 5.003906 33.507812 5.003906 33.636719 5.003906 C 33.683594 5.003906 33.730469 5.003906 33.777344 5.003906 C 34.144531 5.003906 34.46875 5.003906 34.753906 5.269531 C 35.050781 5.582031 34.984375 6.058594 34.984375 6.457031 L 34.984375 6.601562 C 34.984375 6.730469 34.984375 6.863281 34.984375 6.992188 C 34.984375 7.136719 34.984375 7.277344 34.984375 7.421875 L 34.984375 8.171875 C 34.984375 8.4375 34.984375 8.707031 34.984375 8.976562 L 34.984375 16.941406 C 34.984375 17.277344 34.984375 17.609375 34.984375 17.945312 L 34.984375 21.917969 C 34.984375 22.253906 34.984375 22.585938 34.984375 22.917969 L 34.984375 30.875 C 34.984375 31.15625 34.984375 31.441406 34.984375 31.722656 C 34.984375 31.972656 34.984375 32.214844 34.984375 32.464844 L 34.984375 32.886719 C 34.984375 33.015625 34.984375 33.140625 34.984375 33.273438 L 34.984375 33.410156 C 34.984375 33.648438 34.984375 33.886719 34.972656 34.125 C 34.972656 34.148438 34.972656 34.171875 34.96875 34.191406 C 34.957031 34.441406 34.886719 34.609375 34.714844 34.792969 C 34.484375 34.992188 34.238281 35 33.949219 35.007812 C 33.929688 35.007812 33.914062 35.007812 33.894531 35.007812 C 33.390625 35.023438 32.886719 35.019531 32.382812 35.019531 C 32.242188 35.019531 32.097656 35.019531 31.957031 35.019531 C 31.671875 35.019531 31.390625 35.019531 31.109375 35.019531 C 30.875 35.019531 30.640625 35.019531 30.410156 35.019531 L 30.148438 35.019531 C 29.316406 35.019531 28.480469 35.019531 27.648438 35.019531 C 27.378906 35.019531 27.109375 35.019531 26.839844 35.019531 L 26.550781 35.019531 C 25.226562 35.015625 23.898438 35.015625 22.574219 35.015625 L 22.265625 35.015625 C 22.246094 35.015625 22.222656 35.015625 22.203125 35.015625 C 21.996094 35.015625 21.789062 35.015625 21.578125 35.015625 L 21.453125 35.015625 C 20.109375 35.011719 18.777344 35.011719 17.425781 35.011719 C 16.460938 35.011719 15.496094 35.011719 14.527344 35.011719 C 14.507812 35.011719 14.488281 35.011719 14.46875 35.011719 C 14.03125 35.011719 13.59375 35.011719 13.160156 35.007812 C 12.984375 35.007812 12.808594 35.007812 12.632812 35.007812 C 12.617188 35.007812 12.597656 35.007812 12.578125 35.007812 C 11.960938 35.007812 11.339844 35.007812 10.722656 35.007812 C 10.101562 35.007812 9.480469 35.007812 8.859375 35.007812 C 8.773438 35.007812 8.6875 35.007812 8.601562 35.007812 L 8.550781 35.007812 C 8.269531 35.007812 7.984375 35.007812 7.703125 35.007812 C 7.457031 35.007812 7.210938 35.007812 6.964844 35.007812 C 6.824219 35.007812 6.683594 35.003906 6.546875 35.007812 C 6.417969 35.007812 6.289062 35.007812 6.164062 35.003906 C 6.117188 35.003906 6.070312 35.003906 6.027344 35.003906 C 5.714844 35.007812 5.460938 34.988281 5.222656 34.761719 C 5.207031 34.75 5.195312 34.734375 5.179688 34.71875 C 5.160156 34.699219 5.160156 34.699219 5.140625 34.679688 C 4.933594 34.429688 4.96875 34.042969 4.96875 33.734375 C 4.96875 33.683594 4.96875 33.636719 4.96875 33.585938 C 4.96875 33.453125 4.96875 33.320312 4.96875 33.183594 C 4.96875 33.039062 4.96875 32.890625 4.96875 32.746094 C 4.96875 32.492188 4.96875 32.234375 4.96875 31.980469 C 4.96875 31.703125 4.96875 31.429688 4.96875 31.15625 L 4.96875 31.105469 C 4.96875 31.035156 4.96875 30.964844 4.96875 30.894531 C 4.96875 30.175781 4.96875 29.460938 4.96875 28.742188 L 4.96875 28.386719 C 4.96875 27.949219 4.96875 27.511719 4.96875 27.078125 L 4.96875 26.417969 C 4.96875 25.300781 4.96875 24.1875 4.96875 23.070312 L 4.96875 23.003906 C 4.96875 22.769531 4.96875 22.535156 4.96875 22.300781 L 4.96875 21.980469 C 4.96875 20.625 4.96875 19.277344 4.96875 17.902344 C 4.96875 17.5625 4.96875 17.222656 4.96875 16.878906 L 4.96875 16.816406 C 4.96875 16.167969 4.964844 15.515625 4.964844 14.871094 L 4.964844 14.808594 C 4.964844 14.359375 4.964844 13.914062 4.96875 13.46875 L 4.96875 12.867188 C 4.96875 12.234375 4.964844 11.601562 4.964844 10.96875 C 4.964844 10.3125 4.964844 9.65625 4.964844 9 C 4.964844 8.929688 4.964844 8.859375 4.964844 8.789062 L 4.964844 8.738281 C 4.964844 8.464844 4.964844 8.191406 4.964844 7.917969 C 4.964844 7.648438 4.964844 7.378906 4.964844 7.109375 C 4.964844 6.964844 4.964844 6.824219 4.964844 6.679688 C 4.964844 6.546875 4.964844 6.414062 4.964844 6.285156 C 4.964844 6.238281 4.964844 6.191406 4.964844 6.144531 C 4.964844 5.789062 4.988281 5.5 5.25 5.234375 C 5.527344 4.976562 5.878906 4.996094 6.234375 5 Z M 6.644531 6.683594 C 6.644531 6.75 6.640625 6.8125 6.640625 6.878906 L 6.640625 6.941406 C 6.640625 7.007812 6.640625 7.078125 6.640625 7.148438 L 6.640625 7.292969 C 6.640625 7.429688 6.640625 7.5625 6.640625 7.695312 C 6.644531 7.835938 6.644531 7.976562 6.644531 8.117188 C 6.644531 8.382812 6.644531 8.648438 6.644531 8.914062 C 6.644531 9.214844 6.644531 9.515625 6.644531 9.820312 C 6.644531 10.441406 6.644531 11.0625 6.644531 11.683594 C 7.980469 11.6875 9.320312 11.691406 10.644531 11.695312 C 10.800781 11.695312 10.960938 11.695312 11.117188 11.695312 L 11.210938 11.695312 C 11.71875 11.695312 12.226562 11.695312 12.734375 11.699219 C 13.253906 11.699219 13.777344 11.699219 14.296875 11.703125 C 14.621094 11.703125 14.941406 11.703125 15.261719 11.703125 C 15.484375 11.703125 15.703125 11.703125 15.921875 11.703125 C 16.050781 11.703125 16.175781 11.703125 16.304688 11.707031 C 16.421875 11.707031 16.539062 11.707031 16.65625 11.707031 C 16.695312 11.707031 16.738281 11.707031 16.78125 11.707031 C 17.042969 11.714844 17.042969 11.714844 17.265625 11.597656 C 17.289062 11.570312 17.316406 11.539062 17.339844 11.507812 C 17.359375 11.492188 17.378906 11.476562 17.394531 11.457031 C 17.410156 11.445312 17.425781 11.429688 17.4375 11.414062 C 17.457031 11.398438 17.472656 11.382812 17.488281 11.367188 L 17.539062 11.3125 C 17.558594 11.296875 17.578125 11.277344 17.59375 11.257812 C 17.632812 11.222656 17.671875 11.183594 17.707031 11.148438 C 17.765625 11.089844 17.824219 11.03125 17.882812 10.972656 C 17.917969 10.9375 17.957031 10.902344 17.992188 10.863281 C 18.007812 10.847656 18.027344 10.828125 18.046875 10.8125 C 18.0625 10.796875 18.078125 10.78125 18.09375 10.761719 C 18.105469 10.75 18.121094 10.734375 18.136719 10.722656 C 18.171875 10.6875 18.171875 10.6875 18.164062 10.632812 C 18.179688 10.628906 18.195312 10.625 18.207031 10.617188 C 18.28125 10.574219 18.332031 10.523438 18.390625 10.460938 L 18.390625 10.410156 C 18.414062 10.402344 18.441406 10.394531 18.464844 10.382812 L 18.464844 10.335938 C 18.480469 10.328125 18.496094 10.324219 18.511719 10.316406 C 18.570312 10.289062 18.570312 10.289062 18.589844 10.234375 C 18.621094 10.171875 18.652344 10.164062 18.714844 10.132812 C 18.757812 10.097656 18.757812 10.097656 18.789062 10.058594 L 18.789062 10.007812 C 18.816406 10 18.839844 9.992188 18.867188 9.984375 L 18.867188 9.933594 C 18.890625 9.925781 18.914062 9.917969 18.941406 9.910156 C 18.984375 9.875 18.984375 9.875 19.015625 9.835938 L 19.015625 9.785156 C 19.054688 9.773438 19.054688 9.773438 19.089844 9.757812 L 19.089844 9.710938 C 19.128906 9.699219 19.128906 9.699219 19.164062 9.683594 C 19.199219 9.644531 19.234375 9.601562 19.265625 9.558594 C 19.292969 9.535156 19.320312 9.515625 19.347656 9.492188 C 19.371094 9.472656 19.390625 9.453125 19.414062 9.433594 L 19.414062 9.382812 L 19.464844 9.382812 C 19.496094 9.351562 19.523438 9.316406 19.554688 9.28125 C 19.589844 9.234375 19.632812 9.191406 19.675781 9.148438 C 19.726562 9.097656 19.777344 9.046875 19.828125 8.992188 C 19.871094 8.949219 19.917969 8.90625 19.960938 8.863281 C 19.980469 8.839844 20.003906 8.816406 20.023438 8.792969 C 20.246094 8.570312 20.476562 8.378906 20.804688 8.375 C 20.824219 8.375 20.84375 8.375 20.863281 8.375 C 20.886719 8.375 20.90625 8.375 20.929688 8.375 C 21.003906 8.375 21.074219 8.375 21.148438 8.375 C 21.199219 8.375 21.253906 8.375 21.304688 8.375 C 21.449219 8.375 21.59375 8.375 21.738281 8.375 C 21.890625 8.375 22.046875 8.375 22.203125 8.375 C 22.472656 8.371094 22.738281 8.371094 23.007812 8.371094 C 23.292969 8.371094 23.574219 8.371094 23.855469 8.371094 C 23.882812 8.371094 23.882812 8.371094 23.910156 8.371094 C 24 8.371094 24.089844 8.371094 24.179688 8.371094 C 24.808594 8.371094 25.441406 8.367188 26.074219 8.367188 C 26.683594 8.367188 27.300781 8.367188 27.914062 8.367188 C 27.941406 8.367188 27.941406 8.367188 27.96875 8.367188 C 28.160156 8.367188 28.351562 8.367188 28.539062 8.367188 C 28.925781 8.363281 29.316406 8.363281 29.699219 8.363281 L 29.753906 8.363281 C 30.941406 8.363281 32.128906 8.359375 33.328125 8.359375 C 33.332031 8.304688 33.335938 8.25 33.339844 8.195312 C 33.34375 8.164062 33.347656 8.132812 33.347656 8.101562 C 33.355469 7.964844 33.359375 7.824219 33.355469 7.6875 L 33.355469 7.601562 C 33.355469 7.539062 33.355469 7.480469 33.355469 7.417969 C 33.355469 7.328125 33.355469 7.234375 33.355469 7.140625 L 33.355469 6.882812 C 33.355469 6.84375 33.355469 6.84375 33.355469 6.804688 L 33.355469 6.738281 C 33.359375 6.6875 33.359375 6.6875 33.328125 6.660156 C 33.269531 6.660156 33.214844 6.65625 33.15625 6.65625 L 33.097656 6.65625 C 33.035156 6.65625 32.972656 6.65625 32.910156 6.65625 C 32.863281 6.65625 32.820312 6.65625 32.773438 6.65625 C 32.648438 6.65625 32.519531 6.65625 32.394531 6.65625 C 32.257812 6.65625 32.125 6.65625 31.984375 6.65625 L 31.265625 6.65625 C 30.910156 6.65625 30.550781 6.65625 30.195312 6.65625 L 21.882812 6.65625 C 20.609375 6.65625 19.332031 6.65625 18.058594 6.65625 L 7.933594 6.65625 C 7.796875 6.65625 7.664062 6.65625 7.527344 6.65625 C 7.40625 6.65625 7.28125 6.65625 7.160156 6.65625 L 7.027344 6.65625 C 6.964844 6.65625 6.90625 6.65625 6.847656 6.65625 C 6.828125 6.65625 6.8125 6.65625 6.792969 6.65625 C 6.714844 6.652344 6.714844 6.652344 6.648438 6.683594 Z M 20.996094 10.136719 C 20.980469 10.148438 20.96875 10.160156 20.957031 10.171875 C 20.914062 10.214844 20.871094 10.257812 20.832031 10.300781 C 20.800781 10.332031 20.769531 10.363281 20.738281 10.394531 C 20.675781 10.460938 20.609375 10.527344 20.542969 10.589844 C 20.441406 10.695312 20.339844 10.800781 20.234375 10.902344 C 20.050781 11.085938 19.871094 11.273438 19.6875 11.457031 C 19.417969 11.734375 19.144531 12.011719 18.871094 12.285156 C 18.765625 12.390625 18.664062 12.492188 18.5625 12.597656 C 18.496094 12.660156 18.433594 12.726562 18.371094 12.789062 C 18.339844 12.820312 18.3125 12.851562 18.28125 12.878906 C 18 13.171875 17.753906 13.308594 17.34375 13.316406 C 17.273438 13.316406 17.207031 13.316406 17.140625 13.316406 L 17.027344 13.316406 C 16.921875 13.316406 16.820312 13.316406 16.714844 13.316406 C 16.605469 13.316406 16.492188 13.316406 16.382812 13.316406 C 16.1875 13.316406 15.996094 13.316406 15.800781 13.316406 C 15.523438 13.316406 15.238281 13.316406 14.960938 13.316406 C 14.5 13.316406 14.042969 13.316406 13.585938 13.3125 L 13.5 13.3125 C 13.472656 13.3125 13.445312 13.3125 13.417969 13.3125 C 13.363281 13.3125 13.308594 13.3125 13.25 13.3125 L 13.167969 13.3125 C 12.867188 13.3125 12.5625 13.3125 12.261719 13.3125 L 12.179688 13.3125 C 11.722656 13.3125 11.269531 13.3125 10.8125 13.3125 C 10.535156 13.3125 10.257812 13.3125 9.976562 13.3125 C 9.785156 13.308594 9.589844 13.308594 9.394531 13.308594 C 9.285156 13.308594 9.175781 13.308594 9.066406 13.308594 C 8.257812 13.308594 7.449219 13.324219 6.640625 13.335938 L 6.640625 33.363281 L 33.3125 33.363281 L 33.339844 10.011719 C 33.238281 9.988281 33.144531 9.984375 33.042969 9.984375 C 33.011719 9.984375 33.011719 9.984375 32.980469 9.984375 C 32.914062 9.984375 32.84375 9.984375 32.777344 9.984375 C 32.726562 9.984375 32.679688 9.984375 32.628906 9.984375 L 32.226562 9.984375 C 32.082031 9.984375 31.933594 9.984375 31.789062 9.984375 L 28.113281 9.984375 C 27.558594 9.984375 27 9.984375 26.445312 9.984375 L 22.738281 9.984375 C 22.59375 9.984375 22.449219 9.984375 22.304688 9.984375 C 22.175781 9.984375 22.042969 9.984375 21.910156 9.984375 C 21.863281 9.984375 21.816406 9.984375 21.769531 9.984375 C 21.703125 9.984375 21.640625 9.984375 21.574219 9.984375 C 21.546875 9.984375 21.546875 9.984375 21.519531 9.984375 C 21.230469 9.980469 21.230469 9.980469 20.992188 10.132812 Z M 20.996094 10.136719 "/>
<path style=" stroke:none;fill-rule:nonzero;fill:rgb(0%,0.392157%,0%);fill-opacity:1;" d="M 18.398438 15 C 18.441406 15 18.441406 15 18.488281 15 L 18.582031 15 C 18.617188 15 18.648438 15 18.683594 15 C 18.773438 15 18.863281 15 18.953125 15 C 19.011719 15 19.070312 15 19.125 15 C 19.304688 14.996094 19.484375 14.996094 19.660156 14.996094 C 19.867188 14.996094 20.070312 14.996094 20.277344 14.996094 C 20.433594 14.996094 20.59375 14.996094 20.753906 14.996094 C 20.847656 14.996094 20.941406 14.996094 21.039062 14.996094 C 21.128906 14.996094 21.214844 14.996094 21.304688 14.996094 C 21.351562 14.996094 21.402344 14.996094 21.449219 14.992188 C 21.730469 14.996094 21.996094 15.023438 22.203125 15.226562 C 22.351562 15.378906 22.433594 15.554688 22.523438 15.746094 L 22.570312 15.84375 C 22.648438 16.007812 22.726562 16.171875 22.800781 16.339844 C 22.816406 16.382812 22.835938 16.421875 22.855469 16.464844 C 22.894531 16.550781 22.933594 16.636719 22.960938 16.726562 C 23.074219 17.023438 23.3125 17.117188 23.585938 17.246094 C 23.671875 17.289062 23.753906 17.34375 23.835938 17.402344 C 24.03125 17.480469 24.285156 17.421875 24.492188 17.402344 C 24.558594 17.398438 24.621094 17.390625 24.6875 17.382812 C 24.789062 17.375 24.890625 17.367188 24.992188 17.355469 C 25.089844 17.347656 25.191406 17.339844 25.289062 17.332031 C 25.320312 17.328125 25.351562 17.324219 25.382812 17.320312 C 25.605469 17.300781 25.824219 17.289062 26.03125 17.394531 C 26.054688 17.402344 26.078125 17.414062 26.101562 17.425781 C 26.296875 17.566406 26.417969 17.757812 26.527344 17.964844 C 26.558594 18.015625 26.585938 18.070312 26.613281 18.121094 C 26.636719 18.160156 26.636719 18.160156 26.65625 18.199219 C 26.734375 18.335938 26.808594 18.46875 26.886719 18.601562 C 26.917969 18.65625 26.949219 18.710938 26.980469 18.765625 C 26.996094 18.792969 27.015625 18.820312 27.03125 18.847656 C 27.078125 18.929688 27.125 19.011719 27.171875 19.09375 C 27.324219 19.359375 27.476562 19.625 27.632812 19.886719 C 27.675781 19.960938 27.71875 20.03125 27.761719 20.105469 C 27.789062 20.15625 27.816406 20.203125 27.847656 20.253906 C 27.886719 20.324219 27.929688 20.394531 27.96875 20.464844 C 27.980469 20.488281 27.996094 20.507812 28.007812 20.53125 C 28.113281 20.714844 28.1875 20.871094 28.1875 21.089844 C 28.1875 21.121094 28.191406 21.152344 28.191406 21.183594 C 28.164062 21.394531 28.046875 21.558594 27.925781 21.730469 C 27.902344 21.761719 27.902344 21.761719 27.882812 21.792969 C 27.851562 21.835938 27.824219 21.875 27.792969 21.917969 C 27.753906 21.972656 27.71875 22.027344 27.679688 22.082031 C 27.667969 22.097656 27.660156 22.113281 27.648438 22.128906 C 27.625 22.164062 27.601562 22.195312 27.582031 22.226562 C 27.523438 22.316406 27.460938 22.398438 27.386719 22.476562 C 27.148438 22.746094 27.121094 22.992188 27.121094 23.339844 C 27.121094 23.371094 27.121094 23.371094 27.121094 23.402344 C 27.117188 23.679688 27.152344 23.859375 27.328125 24.078125 C 27.359375 24.121094 27.386719 24.167969 27.417969 24.214844 C 27.453125 24.261719 27.484375 24.304688 27.515625 24.351562 C 27.550781 24.402344 27.585938 24.453125 27.621094 24.503906 C 27.671875 24.578125 27.722656 24.648438 27.773438 24.722656 C 27.816406 24.785156 27.863281 24.847656 27.90625 24.910156 C 27.917969 24.929688 27.933594 24.945312 27.945312 24.964844 C 28.074219 25.15625 28.203125 25.355469 28.210938 25.589844 C 28.210938 25.628906 28.210938 25.628906 28.214844 25.664062 C 28.183594 25.894531 28.070312 26.097656 27.957031 26.296875 C 27.941406 26.320312 27.925781 26.34375 27.914062 26.371094 C 27.867188 26.449219 27.824219 26.527344 27.777344 26.605469 C 27.761719 26.628906 27.75 26.652344 27.734375 26.679688 C 27.660156 26.800781 27.589844 26.925781 27.515625 27.046875 C 27.425781 27.207031 27.332031 27.367188 27.238281 27.527344 C 27.101562 27.765625 26.964844 28.003906 26.828125 28.238281 C 26.757812 28.355469 26.691406 28.472656 26.625 28.589844 C 26.261719 29.234375 26.261719 29.234375 25.902344 29.339844 C 25.675781 29.378906 25.433594 29.347656 25.207031 29.328125 C 25.15625 29.324219 25.105469 29.316406 25.054688 29.3125 C 24.988281 29.308594 24.917969 29.300781 24.847656 29.296875 C 24.726562 29.285156 24.605469 29.273438 24.484375 29.265625 C 24.417969 29.257812 24.355469 29.253906 24.289062 29.246094 C 24.261719 29.246094 24.230469 29.242188 24.203125 29.242188 C 24.175781 29.238281 24.148438 29.234375 24.125 29.234375 C 23.964844 29.222656 23.964844 29.222656 23.828125 29.292969 C 23.699219 29.382812 23.570312 29.453125 23.429688 29.527344 C 23.394531 29.542969 23.394531 29.542969 23.359375 29.5625 C 23.1875 29.652344 23.1875 29.652344 23.128906 29.652344 C 23.125 29.671875 23.117188 29.691406 23.113281 29.714844 C 23.070312 29.832031 23.015625 29.945312 22.960938 30.058594 C 22.878906 30.226562 22.796875 30.394531 22.71875 30.5625 C 22.710938 30.578125 22.707031 30.59375 22.699219 30.609375 C 22.664062 30.683594 22.628906 30.761719 22.59375 30.835938 C 22.3125 31.449219 22.3125 31.449219 21.980469 31.609375 C 21.867188 31.652344 21.75 31.65625 21.628906 31.65625 C 21.601562 31.65625 21.570312 31.65625 21.539062 31.65625 L 21.441406 31.65625 C 21.410156 31.65625 21.375 31.65625 21.339844 31.660156 C 21.246094 31.660156 21.152344 31.660156 21.058594 31.660156 C 21 31.660156 20.941406 31.660156 20.882812 31.660156 C 20.703125 31.660156 20.519531 31.660156 20.335938 31.660156 C 20.125 31.660156 19.917969 31.660156 19.707031 31.660156 C 19.542969 31.660156 19.382812 31.660156 19.21875 31.660156 C 19.121094 31.660156 19.023438 31.660156 18.925781 31.664062 C 18.835938 31.664062 18.746094 31.664062 18.652344 31.664062 C 18.601562 31.664062 18.554688 31.664062 18.503906 31.664062 C 18.234375 31.660156 18.015625 31.609375 17.804688 31.429688 C 17.558594 31.144531 17.421875 30.730469 17.269531 30.390625 C 17.222656 30.285156 17.175781 30.183594 17.128906 30.078125 C 17.105469 30.03125 17.085938 29.980469 17.0625 29.929688 C 16.976562 29.738281 16.902344 29.625 16.703125 29.546875 C 16.660156 29.527344 16.617188 29.503906 16.574219 29.484375 C 16.542969 29.472656 16.542969 29.472656 16.511719 29.457031 C 16.460938 29.433594 16.417969 29.402344 16.371094 29.367188 C 16.210938 29.25 16.101562 29.21875 15.90625 29.234375 C 15.886719 29.234375 15.863281 29.234375 15.839844 29.238281 C 15.773438 29.242188 15.703125 29.25 15.632812 29.253906 C 15.609375 29.257812 15.585938 29.257812 15.558594 29.261719 C 15.367188 29.277344 15.171875 29.292969 14.976562 29.3125 L 14.757812 29.332031 C 14.738281 29.335938 14.714844 29.335938 14.691406 29.339844 C 14.382812 29.367188 14.113281 29.375 13.855469 29.175781 C 13.699219 29.027344 13.597656 28.863281 13.492188 28.675781 C 13.457031 28.613281 13.421875 28.550781 13.386719 28.488281 L 13.332031 28.394531 C 13.25 28.246094 13.164062 28.097656 13.078125 27.949219 C 12.773438 27.429688 12.476562 26.910156 12.179688 26.386719 C 12.144531 26.328125 12.109375 26.269531 12.078125 26.210938 C 12.066406 26.195312 12.058594 26.179688 12.050781 26.164062 C 12.023438 26.121094 12 26.074219 11.972656 26.03125 C 11.863281 25.835938 11.820312 25.613281 11.882812 25.390625 C 12.011719 25.0625 12.246094 24.765625 12.4375 24.472656 C 12.496094 24.386719 12.550781 24.296875 12.605469 24.210938 C 12.621094 24.183594 12.640625 24.160156 12.65625 24.136719 C 12.671875 24.109375 12.6875 24.082031 12.707031 24.054688 C 12.71875 24.039062 12.730469 24.023438 12.746094 24.007812 C 12.890625 23.800781 12.886719 23.585938 12.886719 23.34375 L 12.886719 23.277344 C 12.882812 22.925781 12.824219 22.695312 12.578125 22.429688 C 12.492188 22.335938 12.425781 22.230469 12.355469 22.125 C 12.324219 22.085938 12.296875 22.042969 12.265625 22 C 12.183594 21.878906 12.097656 21.757812 12.015625 21.632812 C 12.003906 21.617188 11.988281 21.597656 11.976562 21.582031 C 11.828125 21.359375 11.78125 21.171875 11.808594 20.902344 C 11.855469 20.65625 12.011719 20.433594 12.140625 20.222656 C 12.214844 20.09375 12.289062 19.96875 12.363281 19.835938 C 12.394531 19.78125 12.425781 19.726562 12.457031 19.671875 C 12.523438 19.558594 12.585938 19.449219 12.652344 19.335938 C 12.816406 19.046875 12.984375 18.761719 13.152344 18.472656 C 13.226562 18.34375 13.300781 18.214844 13.375 18.085938 C 13.390625 18.058594 13.40625 18.03125 13.421875 18.003906 C 13.449219 17.953125 13.476562 17.902344 13.507812 17.851562 C 13.652344 17.59375 13.820312 17.417969 14.105469 17.324219 C 14.1875 17.320312 14.269531 17.320312 14.347656 17.320312 C 14.375 17.320312 14.398438 17.320312 14.421875 17.320312 C 14.699219 17.324219 14.972656 17.347656 15.25 17.375 C 15.324219 17.382812 15.398438 17.390625 15.476562 17.394531 C 15.519531 17.402344 15.566406 17.40625 15.613281 17.410156 C 15.957031 17.449219 15.957031 17.449219 16.261719 17.324219 C 16.296875 17.304688 16.328125 17.285156 16.359375 17.261719 C 16.382812 17.246094 16.382812 17.246094 16.40625 17.230469 C 16.492188 17.179688 16.578125 17.132812 16.664062 17.085938 C 16.679688 17.078125 16.695312 17.070312 16.714844 17.058594 C 16.824219 17 16.824219 17 16.882812 17 C 16.890625 16.984375 16.894531 16.964844 16.902344 16.949219 C 17.027344 16.644531 17.167969 16.347656 17.308594 16.050781 C 17.316406 16.035156 17.324219 16.015625 17.332031 16 C 17.378906 15.890625 17.429688 15.78125 17.480469 15.671875 C 17.496094 15.644531 17.507812 15.617188 17.519531 15.589844 C 17.625 15.375 17.734375 15.191406 17.957031 15.089844 C 17.980469 15.078125 18.007812 15.066406 18.03125 15.050781 C 18.15625 15.007812 18.273438 14.996094 18.402344 14.996094 Z M 18.851562 16.652344 C 18.71875 16.921875 18.582031 17.195312 18.453125 17.46875 C 18.128906 18.144531 18.128906 18.144531 17.898438 18.269531 C 17.867188 18.289062 17.835938 18.304688 17.804688 18.320312 C 17.785156 18.332031 17.769531 18.339844 17.753906 18.347656 C 17.4375 18.523438 17.144531 18.714844 16.859375 18.929688 C 16.835938 18.945312 16.816406 18.960938 16.796875 18.976562 C 16.777344 18.988281 16.761719 19.003906 16.742188 19.015625 C 16.582031 19.105469 16.421875 19.140625 16.238281 19.136719 C 16.210938 19.136719 16.210938 19.136719 16.179688 19.132812 C 15.90625 19.128906 15.632812 19.101562 15.359375 19.078125 C 15.308594 19.074219 15.253906 19.066406 15.199219 19.0625 C 15.066406 19.050781 14.933594 19.039062 14.804688 19.027344 C 14.71875 19.152344 14.636719 19.277344 14.5625 19.40625 C 14.546875 19.433594 14.53125 19.464844 14.515625 19.492188 C 14.507812 19.507812 14.5 19.519531 14.492188 19.535156 C 14.445312 19.613281 14.402344 19.691406 14.359375 19.765625 C 14.351562 19.785156 14.339844 19.796875 14.332031 19.816406 C 14.257812 19.941406 14.1875 20.066406 14.113281 20.195312 C 14.070312 20.269531 14.027344 20.34375 13.984375 20.417969 C 13.929688 20.507812 13.878906 20.597656 13.820312 20.683594 C 13.808594 20.703125 13.796875 20.722656 13.785156 20.746094 C 13.761719 20.78125 13.738281 20.820312 13.710938 20.855469 C 13.683594 20.90625 13.660156 20.945312 13.652344 21.003906 C 13.679688 21.089844 13.726562 21.15625 13.777344 21.230469 C 13.800781 21.265625 13.800781 21.265625 13.828125 21.300781 C 13.84375 21.320312 13.859375 21.339844 13.875 21.363281 C 14.605469 22.316406 14.605469 22.316406 14.609375 22.699219 C 14.613281 22.734375 14.613281 22.765625 14.613281 22.796875 C 14.613281 22.835938 14.613281 22.867188 14.613281 22.902344 C 14.613281 22.941406 14.613281 22.976562 14.613281 23.015625 C 14.613281 23.089844 14.613281 23.167969 14.613281 23.246094 C 14.613281 23.339844 14.613281 23.4375 14.613281 23.535156 C 14.617188 23.613281 14.617188 23.6875 14.617188 23.765625 C 14.617188 23.800781 14.617188 23.835938 14.617188 23.871094 C 14.617188 24.152344 14.582031 24.386719 14.417969 24.621094 C 14.398438 24.644531 14.382812 24.671875 14.363281 24.695312 C 14.34375 24.726562 14.324219 24.753906 14.304688 24.78125 C 14.28125 24.8125 14.257812 24.847656 14.234375 24.878906 C 14.128906 25.027344 14.027344 25.175781 13.917969 25.324219 C 13.90625 25.34375 13.890625 25.363281 13.878906 25.382812 C 13.851562 25.417969 13.828125 25.457031 13.800781 25.492188 C 13.707031 25.613281 13.707031 25.613281 13.652344 25.757812 C 13.683594 25.824219 13.714844 25.878906 13.753906 25.941406 C 13.777344 25.980469 13.804688 26.015625 13.828125 26.054688 C 13.84375 26.085938 13.84375 26.085938 13.863281 26.117188 C 13.933594 26.230469 13.996094 26.34375 14.058594 26.457031 C 14.265625 26.824219 14.476562 27.191406 14.699219 27.554688 C 14.710938 27.578125 14.726562 27.601562 14.742188 27.628906 C 14.773438 27.683594 14.773438 27.683594 14.828125 27.707031 C 14.875 27.707031 14.875 27.707031 14.929688 27.699219 C 14.960938 27.695312 14.960938 27.695312 14.992188 27.695312 C 15.015625 27.691406 15.039062 27.6875 15.0625 27.6875 C 15.109375 27.683594 15.15625 27.675781 15.207031 27.671875 C 15.28125 27.664062 15.359375 27.65625 15.433594 27.648438 C 15.710938 27.621094 15.980469 27.601562 16.257812 27.597656 C 16.28125 27.597656 16.300781 27.597656 16.324219 27.597656 C 16.515625 27.597656 16.648438 27.648438 16.804688 27.757812 C 16.835938 27.773438 16.863281 27.792969 16.890625 27.8125 C 16.9375 27.84375 16.984375 27.875 17.03125 27.90625 C 17.257812 28.058594 17.5 28.1875 17.738281 28.3125 C 17.753906 28.320312 17.773438 28.328125 17.789062 28.339844 C 17.835938 28.363281 17.882812 28.386719 17.925781 28.410156 C 18.203125 28.570312 18.308594 28.832031 18.4375 29.109375 C 18.574219 29.410156 18.714844 29.707031 18.855469 30.003906 L 21.15625 30.003906 C 21.308594 29.699219 21.308594 29.699219 21.460938 29.394531 C 21.476562 29.359375 21.492188 29.324219 21.511719 29.289062 C 21.535156 29.234375 21.5625 29.179688 21.585938 29.128906 C 21.769531 28.742188 21.925781 28.476562 22.316406 28.277344 C 22.492188 28.183594 22.660156 28.082031 22.828125 27.972656 C 22.84375 27.960938 22.863281 27.949219 22.878906 27.9375 C 22.96875 27.875 23.054688 27.816406 23.136719 27.75 C 23.210938 27.695312 23.28125 27.648438 23.363281 27.609375 C 23.382812 27.601562 23.402344 27.589844 23.421875 27.578125 C 23.554688 27.523438 23.679688 27.527344 23.820312 27.539062 C 23.84375 27.539062 23.863281 27.539062 23.882812 27.542969 C 24.125 27.554688 24.363281 27.582031 24.597656 27.605469 C 24.664062 27.613281 24.730469 27.621094 24.796875 27.628906 C 24.839844 27.632812 24.878906 27.636719 24.917969 27.640625 C 24.972656 27.644531 25.027344 27.652344 25.082031 27.65625 C 25.101562 27.65625 25.117188 27.660156 25.136719 27.660156 C 25.195312 27.664062 25.195312 27.664062 25.28125 27.65625 C 25.335938 27.613281 25.335938 27.613281 25.363281 27.546875 C 25.378906 27.523438 25.390625 27.5 25.40625 27.476562 C 25.425781 27.433594 25.425781 27.433594 25.445312 27.394531 C 25.476562 27.339844 25.507812 27.285156 25.539062 27.230469 C 25.554688 27.199219 25.570312 27.171875 25.585938 27.140625 C 25.660156 27.003906 25.742188 26.863281 25.820312 26.726562 C 25.957031 26.488281 26.09375 26.25 26.226562 26.011719 C 26.242188 25.988281 26.253906 25.96875 26.265625 25.945312 C 26.277344 25.925781 26.289062 25.90625 26.300781 25.886719 C 26.324219 25.84375 26.347656 25.804688 26.375 25.761719 C 26.382812 25.742188 26.394531 25.722656 26.40625 25.703125 C 26.394531 25.652344 26.394531 25.652344 26.355469 25.605469 C 26.34375 25.582031 26.328125 25.5625 26.3125 25.539062 C 26.296875 25.515625 26.277344 25.488281 26.257812 25.460938 C 26.25 25.449219 26.238281 25.433594 26.230469 25.421875 C 26.160156 25.320312 26.089844 25.222656 26.023438 25.125 C 25.972656 25.054688 25.921875 24.980469 25.871094 24.910156 C 25.832031 24.855469 25.792969 24.800781 25.753906 24.746094 C 25.730469 24.710938 25.707031 24.679688 25.679688 24.644531 C 25.664062 24.621094 25.664062 24.621094 25.648438 24.597656 C 25.503906 24.386719 25.441406 24.1875 25.441406 23.9375 C 25.441406 23.898438 25.441406 23.898438 25.441406 23.863281 C 25.441406 23.785156 25.441406 23.707031 25.4375 23.628906 C 25.4375 23.550781 25.4375 23.472656 25.4375 23.394531 C 25.4375 23.347656 25.4375 23.296875 25.433594 23.25 C 25.433594 23.125 25.429688 23.003906 25.414062 22.878906 C 25.359375 22.4375 25.511719 22.179688 25.765625 21.839844 C 25.808594 21.78125 25.851562 21.722656 25.890625 21.664062 C 25.90625 21.644531 25.921875 21.625 25.933594 21.605469 C 25.960938 21.566406 25.988281 21.527344 26.015625 21.488281 C 26.074219 21.410156 26.136719 21.328125 26.199219 21.25 C 26.214844 21.226562 26.234375 21.203125 26.253906 21.175781 C 26.269531 21.15625 26.285156 21.136719 26.300781 21.117188 C 26.347656 21.027344 26.332031 20.976562 26.308594 20.882812 C 26.277344 20.820312 26.25 20.765625 26.214844 20.707031 C 26.199219 20.683594 26.199219 20.683594 26.183594 20.65625 C 26.152344 20.597656 26.117188 20.539062 26.082031 20.480469 C 26.054688 20.4375 26.03125 20.390625 26.003906 20.347656 C 25.960938 20.273438 25.917969 20.199219 25.875 20.125 C 25.707031 19.835938 25.539062 19.546875 25.375 19.253906 C 25.328125 19.171875 25.277344 19.089844 25.230469 19.003906 C 25.015625 19.015625 24.800781 19.03125 24.585938 19.050781 C 24.566406 19.050781 24.550781 19.054688 24.53125 19.054688 C 24.457031 19.0625 24.382812 19.066406 24.308594 19.074219 C 23.808594 19.121094 23.449219 19.136719 23.03125 18.828125 C 22.746094 18.621094 22.425781 18.464844 22.113281 18.308594 C 21.714844 18.097656 21.5625 17.535156 21.386719 17.144531 C 21.378906 17.125 21.371094 17.109375 21.363281 17.089844 C 21.347656 17.058594 21.335938 17.023438 21.320312 16.992188 C 21.269531 16.878906 21.214844 16.765625 21.15625 16.652344 Z M 18.851562 16.652344 "/>
<path style=" stroke:none;fill-rule:nonzero;fill:rgb(0%,0.392157%,0%);fill-opacity:1;" d="M 19.898438 20 C 20.8125 19.980469 21.675781 20.324219 22.335938 20.953125 C 22.515625 21.128906 22.667969 21.316406 22.800781 21.527344 C 22.8125 21.542969 22.820312 21.558594 22.832031 21.574219 C 23.320312 22.363281 23.417969 23.253906 23.230469 24.148438 C 23.03125 24.984375 22.484375 25.707031 21.761719 26.160156 C 20.957031 26.636719 20.035156 26.777344 19.136719 26.546875 C 18.648438 26.414062 18.222656 26.179688 17.839844 25.851562 C 17.820312 25.835938 17.796875 25.816406 17.777344 25.796875 C 17.152344 25.257812 16.761719 24.445312 16.6875 23.625 C 16.640625 22.65625 16.917969 21.789062 17.574219 21.050781 C 18.140625 20.4375 18.9375 20.042969 19.773438 19.992188 C 19.820312 19.988281 19.867188 19.988281 19.910156 19.984375 Z M 18.675781 22.289062 C 18.398438 22.671875 18.273438 23.109375 18.328125 23.578125 C 18.410156 24.042969 18.65625 24.433594 19.039062 24.710938 C 19.453125 24.976562 19.90625 25.070312 20.390625 24.976562 C 20.851562 24.851562 21.21875 24.566406 21.46875 24.160156 C 21.695312 23.742188 21.738281 23.289062 21.613281 22.832031 C 21.476562 22.390625 21.175781 22.054688 20.777344 21.835938 C 20.035156 21.46875 19.207031 21.660156 18.675781 22.285156 Z M 18.675781 22.289062 "/>
<path style=" stroke:none;fill-rule:nonzero;fill:rgb(0%,0.392157%,0%);fill-opacity:1;" d="M 12.976562 8.5 C 13.179688 8.667969 13.296875 8.851562 13.328125 9.117188 C 13.335938 9.359375 13.257812 9.558594 13.09375 9.734375 C 12.921875 9.917969 12.734375 9.988281 12.480469 9.996094 C 12.320312 9.992188 12.207031 9.96875 12.070312 9.886719 C 12.054688 9.875 12.035156 9.863281 12.019531 9.855469 C 11.832031 9.730469 11.730469 9.546875 11.671875 9.332031 C 11.636719 9.078125 11.691406 8.855469 11.84375 8.644531 C 12.132812 8.320312 12.613281 8.242188 12.972656 8.5 Z M 12.976562 8.5 "/>
<path style=" stroke:none;fill-rule:nonzero;fill:rgb(0%,0.392157%,0%);fill-opacity:1;" d="M 16.273438 8.449219 C 16.457031 8.578125 16.597656 8.769531 16.640625 8.988281 C 16.667969 9.289062 16.601562 9.503906 16.417969 9.738281 C 16.21875 9.933594 15.996094 9.972656 15.730469 9.96875 C 15.515625 9.957031 15.347656 9.855469 15.203125 9.699219 C 15.046875 9.511719 14.976562 9.304688 14.992188 9.066406 C 15.046875 8.800781 15.167969 8.59375 15.394531 8.441406 C 15.664062 8.28125 16.011719 8.289062 16.277344 8.449219 Z M 16.273438 8.449219 "/>
<path style=" stroke:none;fill-rule:nonzero;fill:rgb(0%,0.392157%,0%);fill-opacity:1;" d="M 9.550781 8.425781 C 9.738281 8.535156 9.894531 8.703125 9.960938 8.914062 C 10.007812 9.148438 10 9.390625 9.875 9.601562 C 9.738281 9.792969 9.558594 9.929688 9.324219 9.976562 C 9.050781 9.996094 8.835938 9.972656 8.617188 9.792969 C 8.464844 9.648438 8.363281 9.480469 8.339844 9.265625 C 8.339844 8.96875 8.386719 8.765625 8.597656 8.546875 C 8.867188 8.332031 9.230469 8.261719 9.550781 8.421875 Z M 9.550781 8.425781 "/>
</g>
</svg>
